<?xml version="1.0" encoding="utf-8"?>
<!-- Generator: Adobe Illustrator 25.4.0, SVG Export Plug-In . SVG Version: 6.00 Build 0)  -->
<svg version="1.1" id="Layer_1" xmlns="http://www.w3.org/2000/svg" xmlns:xlink="http://www.w3.org/1999/xlink" x="0px" y="0px"
	 viewBox="0 0 1482.9 1325.7" style="enable-background:new 0 0 1482.9 1325.7;" xml:space="preserve">
<style type="text/css">
	.st0{fill:none;stroke:#FFB000;stroke-width:6;stroke-miterlimit:10;}
	.st1{fill:#FFFFFF;stroke:#6562CF;stroke-width:6;stroke-miterlimit:10;}
	.st2{fill:#FFB819;}
	.st3{fill:#F49C00;}
	.st4{fill:#DBDAFF;}
	.st5{fill:#C36F0B;}
	.st6{fill:none;stroke:#6562CF;stroke-width:7;stroke-linecap:round;stroke-miterlimit:10;}
	.st7{fill:none;stroke:#FFFFFF;stroke-width:6;stroke-linecap:round;stroke-miterlimit:10;}
	.st8{fill:#3F4D79;}
	.st9{fill:#FFB000;}
	.st10{fill:none;stroke:#F49C00;stroke-width:6;stroke-miterlimit:10;}
	.st11{fill:none;stroke:#F49C00;stroke-width:6;stroke-linecap:round;stroke-miterlimit:10;}
	.st12{fill:none;stroke:#B65A18;stroke-width:4;stroke-linecap:round;stroke-miterlimit:10;}
	.st13{fill:none;stroke:#B65A18;stroke-width:3;stroke-linecap:round;stroke-miterlimit:10;}
	.st14{fill:#B65A18;}
	.st15{fill:none;stroke:#3F4D79;stroke-width:3;stroke-linecap:round;stroke-miterlimit:10;}
	.st16{fill:#C7BFFF;}
	.st17{fill:#FFFFFF;}
	.st18{fill:none;stroke:#6562CF;stroke-width:6;stroke-miterlimit:10;}
	.st19{fill:#E2E2FF;}
	.st20{fill:#FFFFFF;stroke:#D8BAA3;stroke-width:6;stroke-miterlimit:10;}
	.st21{fill:none;stroke:#D8BAA3;stroke-width:6;stroke-miterlimit:10;}
	.st22{fill:#642648;}
	.st23{fill:#722D54;}
	.st24{fill:#3F4D90;}
	.st25{fill:none;stroke:#FFFFFF;stroke-width:4;stroke-miterlimit:10;}
	.st26{fill:#F0E1D4;}
	.st27{fill:#F0E1D4;stroke:#FFFFFF;stroke-width:5;stroke-linejoin:round;}
	.st28{fill:#FFFFFF;stroke:#3F4D79;stroke-width:5;stroke-linejoin:round;}
	.st29{fill:none;stroke:#722D54;stroke-width:6;stroke-miterlimit:10;}
	.st30{fill:none;stroke:#722D54;stroke-width:3;stroke-miterlimit:10;}
</style>
<g id="Layer_2_00000064321448462483901480000012136898524549837498_">
	<g id="Слой_1">
		<g id="_4">
			<g id="CHAIR">
				<line class="st0" x1="930" y1="1280.5" x2="930" y2="814.8"/>
				<line class="st0" x1="724.2" y1="1280.5" x2="724.2" y2="814.8"/>
				<line class="st0" x1="726.8" y1="1205.6" x2="932" y2="1205.6"/>
				<path class="st1" d="M981.3,769v29.2c0,9.2-7.4,16.6-16.6,16.6H691.5c-9.2,0-16.6-7.4-16.6-16.6V769c0-9.2,7.4-16.6,16.6-16.6
					h273.1C973.8,752.4,981.3,759.9,981.3,769z"/>
			</g>
			<g id="CHARACTER">
				<g id="HOOD">
					<path class="st2" d="M918,279.1c21.3-53.4-34.7-78.1-77.3-84.5c-46.1-6.9-100.5-6.1-126.1,22.4s-2.2,81,14.7,85.8
						C729.3,302.8,887.7,355,918,279.1z"/>
					<path class="st3" d="M898.3,260.5c18.9-38.4-22.2-52.4-61.8-59.2s-76.8-4.8-101,15.5s3.3,46.9,19.3,50.3
						C754.8,267,879.4,298.9,898.3,260.5z"/>
				</g>
				<g id="LEGS">
					<g id="RIGHT_FOOT">
						<path class="st4" d="M672.3,1243.8c18.5-4.4,41-53.1,39.3-83.8c3.5,8.4,47.4,5.5,43-7.4c5.3,7.8,36,26.9,34.4,35.7
							s-29.9,34.2-31.8,47.8s0.8,33.8-11.1,39.8s-75.2,6.4-85.6,0S660.6,1246.6,672.3,1243.8z"/>
						<path class="st5" d="M751.9,1117.3c0,0-1.6,22.4,2.7,35.4s-39.5,15.8-43,7.4l-9.5-33.5L751.9,1117.3z"/>
						<path class="st6" d="M660.3,1275.9c10.3,6.4,73.7,6,85.6,0s9.1-26.3,11.1-39.8s30.3-39,31.9-47.8"/>
						<path class="st7" d="M667.2,1241.8c20.9-7.4,41.9,2,41.9,2"/>
					</g>
					<g id="LEFT_FOOT">
						<path class="st4" d="M936.9,1243.8c-18.5-4.4-36-53.1-34.3-83.8c-3.5,8.4-46.4,0.5-42-12.4c-5.3,7.8-36,26.9-34.4,35.7
							s20.9,39.2,22.8,52.8s9.2,33.8,21.1,39.8s68.2,6.4,78.6,0S948.5,1246.6,936.9,1243.8z"/>
						<path class="st5" d="M866.3,1114.3c0,0-1.4,20.4-5.7,33.4s38.5,20.8,42,12.4l21.5-35.5L866.3,1114.3z"/>
						<path class="st6" d="M948.8,1275.9c-10.4,6.4-66.6,6-78.6,0s-19.2-26.3-21.2-39.8s-21.3-44-22.8-52.8"/>
						<path class="st7" d="M941.9,1241.8c-21-7.4-41.9,2-41.9,2"/>
					</g>
					<path id="PANTS" class="st8" d="M749.6,617.6c-52.9,28.2-161.5,120.8-171.9,146.7s97.8,350.9,104.6,360.2s76.5,2.2,79.3-14.4
						c32.4-191.4-31.1-315.2-29.8-317.1s51.1-5.7,108.3-6.4c118.7-1.3,137.7,28.6,137.7,28.6c-52.1,62.9-119.1,275.1-120.3,288.7
						s30.3,20.3,62.3,23.4s218.3-233,218.3-344.9c0-62.7-208.3-164.7-208.3-164.7S787.7,597.3,749.6,617.6z"/>
				</g>
				<g id="HOODY">
					<path class="st9" d="M898.3,260.5L754.8,267c-36.3,8.7-90.6,27.5-107.3,51.5S596,447.6,596,447.6s-55.8-66-82.6-84.8
						c0,0-21,18.1-46.4,18.8c0,0,65.2,218.2,136.6,218.2c59.8,0,99.4-100.5,99.4-100.5L714.3,607c-6.3,20-24.5,49.9-36.1,59.1
						s47.7,33.2,170.3,1.6c102.5-26.4,160.6-7.5,160.6-7.5c17-10.6-57.6-49.1-53.6-63.1c0,0,9.3-27.5,19.3-60.8
						c22.6,27.6,50.1,46.4,82.6,44.3c77.5-4.9,127.1-226.6,127.1-226.6s-25.6-34.1-30-33s-99.5,117.8-99.5,117.8
						s-39.5-130-65.9-144.5C966.8,278.8,907.9,258.7,898.3,260.5z"/>
					<path class="st10" d="M630.6,501.2c0,0-16.4-37.1-34.5-58"/>
					<path class="st10" d="M923.5,266.1c-12.3,40.9-73.8,54.7-73.8,54.7s-70-43.8-139.6-37.9"/>
					<path class="st11" d="M997.4,439.9C992,486.5,953.6,597,953.6,597"/>
				</g>
				<g id="ARMS">
					<g id="RIGHT">
						<path class="st5" d="M479.6,283.6c1.3,6.8,4.2,13.2,8.4,18.8c3,3.8,11.8,17.5,14.2,20.9c5.9,8.4,13.6,28.6,12.5,36.4
							c-2.7,18.9-13.4,24.4-22.2,26.6c-12.6,3.3-38.7,1.4-55.1-7.8c-5.3-3,0.2-15.7,0.2-15.7c-2.2-2.8-1.4-9.1,1.8-13.9
							c0,0-4-6.4,1.2-14.2c-1.6-4-1.9-8.5-0.6-12.7c2.9-8.8,26.8-4.9,30.1-4.9c6.4,0.1-0.1-9.2-1-15.1
							C466.4,285.4,479.6,283.6,479.6,283.6z"/>
						<path class="st12" d="M441.7,334.9c10.3,2.5,20.8,4,31.4,4.5c7.8,1.2,8.6-11.6,2.6-12.9c-4.2-0.9-28.6-1.8-28-5.8"/>
						<path class="st12" d="M473.1,339.4c9.1,1.7,4.3,15,0.5,14.3c0,0-6.9,0.5-32.7-4.7"/>
						<path class="st12" d="M473.7,354c7.3,0.9,2.8,13.5-0.8,13.1c0,0-8.4,0.6-32.7-4.7"/>
						<path class="st12" d="M447.9,378c22,4,26.6,3,26.8-6.6c0.1-5.4-8.5-4.6-8.5-4.6"/>
					</g>
					<g id="LEFT">
						<path id="ARM" class="st5" d="M1176.7,255.7c-0.5,6.9-2.5,13.6-6,19.5c-2.5,4.1-9.5,18.7-11.4,22.4c-4.8,9-9.9,29.9-7.9,37.4
							c5,18.3,16.2,22.4,25.2,23.6c12.9,1.7,38.4-3.4,53.4-14.4c4.8-3.6-2.2-15.5-2.2-15.5c1.8-3,0.2-9.1-3.5-13.5
							c0,0,3.2-6.8-2.9-13.8c1.1-4.2,0.8-8.6-0.9-12.6c-3.9-8.3-27-1.6-30.2-1.2c-6.3,0.9-1-9-0.8-15
							C1189.9,255.8,1176.7,255.7,1176.7,255.7z"/>
						<g id="FINGERS">
							<path class="st5" d="M1212.7,288.5c1,3.9-22.9,7.7-27,9.1c-4.3,1.5-4.1,9.2-0.3,11.8c0,6.4,2.1,13.5,4.1,14.5
								c-4.8,3,0.6,14,3.8,13.2c1.1-0.1,2.2-0.2,3.2-0.5c-2.3,0.6-4.9,2-4.4,5c1.4,9.4,6.1,9.9,27.3,3.2L1212.7,288.5z"/>
							<path class="st13" d="M1212.7,288.4c-3.8,1.4-22.9,7.7-27,9.1c-5.8,2-3.4,14.5,4.1,12.4c10-1.9,19.8-4.6,29.2-8.3"/>
							<path class="st13" d="M1189.8,309.9c-8.8,2.8-2.4,15.3,1.2,14.1c0,0,5.7-0.4,30.4-8.6"/>
							<path class="st13" d="M1193.5,323.7c-8.6,1.1-3.7,14.2-0.2,13.4c0,0,8.4-0.4,31.6-8.6"/>
							<path class="st13" d="M1219.4,344.9c-21.2,6.6-25.9,6.2-27.3-3.2c-0.8-5.3,7.9-5.6,7.9-5.6"/>
						</g>
					</g>
				</g>
				<g id="HEAD">
					<g id="NECK">
						<path class="st5" d="M860.6,173.5c-4.3,72.5,37.7,87,37.7,87c-6.5,23.2-47.8,58-47.8,58c-53.7-44.2-95.7-51.5-95.7-51.5
							c45.7-25.4,30.4-93.5,30.4-93.5L860.6,173.5z"/>
						<path class="st14" d="M790.8,185.8c23.7,74.7,107.5,74.7,107.5,74.7s-42-14.5-37.7-87h-75.4L790.8,185.8z"/>
					</g>
					<path id="HEAD-2" class="st5" d="M766.5,153.1c4.4-7.4,16.6-0.3,16.6-0.3s-8.7-80.1,59-78.3c71.1,1.9,63.8,142,16.1,142
						c-53.5,0-75.9-43.7-75.9-43.7S762.1,160.5,766.5,153.1z"/>
					<g id="HAIR">
						<path class="st15" d="M894.7,131.7c-1.6-11.9-17.5-28.4-46.7-28.1c-33.6,0.4-34.3-23.9-34.3-23.9"/>
						<path class="st8" d="M794.9,36.8c52.5-9.3,118.2,28.4,128.5,55.1c9.5,24.6-26.8,70.5-29.4,73.7l-0.2,0.1
							c1.9-14.8,1-29.8-2.5-44.2c-0.1-0.4-0.2-0.8-0.3-1.1c-3.1-10.9-10.6-21.3-37.9-22.1c-28.7-0.9-38.4-18-38.7-18.6
							c-37.4,17.3-31.3,73.2-31.3,73.2s-12.3-6.9-16.6,0.3c-4.4,7.2,15.8,19.7,15.8,19.7c4.3,7.6,9.8,14.5,16.2,20.3
							c-4.3,0.3-7.7,0.1-9.8-0.8c-35.3-15.5-67.2-38.3-67.2-64.8C721.6,113.8,765.6,42,794.9,36.8z"/>
					</g>
				</g>
			</g>
			<g id="COMPUTER">
				<g id="COMPUTER-2">
					<path class="st16" d="M953.7,505.3c-9.7-3.3-14.9-13.8-11.6-23.6l85.3-254.1c3.6-10.7,13.7-18,25-18h402.8c2,0,4,0.3,5.9,1
						c9.7,3.3,15,13.8,11.7,23.5l-85.4,254.2c-3.6,10.7-13.7,18-25,18H959.6C957.6,506.3,955.6,506,953.7,505.3z"/>
					<path class="st17" d="M963,515.3c-9.7-3.3-15-13.8-11.7-23.5l85.3-254.1c3.6-10.7,13.7-18,25-18h402.7c2,0,4,0.3,5.9,1
						c9.7,3.3,15,13.8,11.7,23.5l-85.3,254.1c-3.6,10.7-13.7,18-25,18H968.8C966.8,516.2,964.9,515.9,963,515.3z"/>
					<path class="st18" d="M953.7,504.5c-9.7-3.3-15-13.8-11.7-23.5l85.4-254.1c3.6-10.7,13.7-18,25-18h402.8c2,0,4,0.3,5.9,1
						c9.7,3.3,15,13.8,11.7,23.5l-85.4,254.1c-3.6,10.7-13.7,18-25,18H959.6C957.6,505.5,955.6,505.2,953.7,504.5z"/>
					<path class="st19" d="M1169.4,502.1h-66.2l30.6-76.2C1156.6,442.5,1169.4,502.1,1169.4,502.1z"/>
					<path class="st1" d="M1089.8,605.4h115.7c130.4,0,60.2-147.2,34.3-176.2h-100.3c25.9,29,80.8,168.5-49.6,168.5V605.4z"/>
					
						<ellipse transform="matrix(0.8456 -0.5338 0.5338 0.8456 1.6794 705.6266)" class="st19" cx="1220.8" cy="349.9" rx="24" ry="19.1"/>
					
						<ellipse transform="matrix(0.8456 -0.5338 0.5338 0.8456 3.5745 701.3739)" class="st18" cx="1214.4" cy="344.5" rx="24" ry="19.1"/>
				</g>
				<g id="TABLE">
					<path class="st17" d="M1389.2,635.1H792c-8.8,0-15.9-6.6-15.9-14.8l0,0c0-8.2,7.1-14.8,15.9-14.8h597.2V635.1z"/>
					<path class="st18" d="M1389.2,635.1H792c-8.8,0-15.9-6.6-15.9-14.8l0,0c0-8.2,7.1-14.8,15.9-14.8h597.2"/>
				</g>
			</g>
		</g>
	</g>
</g>
<g id="Layer_2_00000119113668314395180410000010002619935179540151_">
	<g id="Слой_1_00000169560171460816824590000001788999828979451781_">
		<g id="_1">
			<g id="CHAIR_00000082328313576950298590000014078137625263534760_">
				<path class="st20" d="M117.8,817.1h290.5c21.9,0,39.6,17.7,39.6,39.6l0,0c0,21.9-17.7,39.6-39.6,39.6H117.8
					c-21.9,0-39.6-17.7-39.6-39.6l0,0C78.2,834.8,95.9,817.1,117.8,817.1z"/>
				<path class="st21" d="M102.1,1322.7L102.1,1322.7c-1.3,0-2.4-1-2.5-2.4c0-0.1,0-0.2,0-0.3l59.6-423.7h194.3l-249.3,425.2
					C103.8,1322.3,103,1322.7,102.1,1322.7z"/>
				<path class="st21" d="M421.6,1322.7L421.6,1322.7c1.3,0,2.4-1,2.5-2.3c0-0.1,0-0.3,0-0.4l-69.6-423.7H160.2l259.3,425.2
					C420,1322.3,420.8,1322.7,421.6,1322.7z"/>
			</g>
			<g id="WOMAN">
				<g id="LEGS_00000044151836197895544210000005026353423913628349_">
					<g id="RIGHT_FOOT_00000178901153640109728220000003481195470126543030_">
						<path class="st14" d="M486.1,1163.3c13.5,1.3,35.3,4,61.3,1.5c-6.7,25.8-9.8,50.4-14.6,72.3c-3.1,14.1,16,33.2,21.8,47
							c-0.1-0.1-0.3-0.1-0.5-0.2c-26.5-4.2-62.1,20.9-58.4-18.3C499.2,1226.4,490.4,1197.7,486.1,1163.3z"/>
						<path id="SHOE" class="st22" d="M496.5,1236.8c-9.1,0-25.9,16.5-24.5,42.9c0.8,15.6,3.4,31,7.7,46h106.5
							c5-37.7-32.1-41.8-32.1-41.8c-26.5-4.2-60.8,20.9-57.1-18.3L496.5,1236.8z"/>
					</g>
					<g id="LEFT_FOOT_00000003096500129226672170000003309057088949396894_">
						<path class="st5" d="M412.1,1164.3c13.5,1.3,42.3,3,68.3,0.5c-6.7,25.8-10.6,72.3-10.6,72.3c-3.1,14.1,16,33.2,21.8,47
							c-0.1-0.1-0.3-0.1-0.5-0.2c-26.5-4.2-62.1,20.9-58.4-18.3C436.2,1226.4,412.1,1164.3,412.1,1164.3z"/>
						<path id="SHOE-2" class="st23" d="M431.5,1236.8c-9.1,0-23.9,16.5-22.5,42.9c0.8,15.6,3.4,31,7.7,46h106.5
							c5-37.7-32.1-41.8-32.1-41.8c-26.5-4.2-60.8,20.9-57.1-18.3L431.5,1236.8z"/>
					</g>
					<g id="LEGS-2">
						<path class="st24" d="M198.1,595.9c0,0-91.5,110.8-85,184.6s82.4,95.7,222,94.1c0,0,4.1,110.8,76.6,290c0,0,33.6,6.5,75,0
							c0,0,35,3.5,61-0.2c0,0,55.4-362.3,48.7-399.1c-8.9-48.7-185.4-92.6-231.1-103.2l-38.2-66.2
							C327.1,595.9,250.4,605.7,198.1,595.9z"/>
						<path class="st25" d="M300.6,705c0,0,146.4,38.4,164.2,85.5s18.8,378.1,18.8,378.1"/>
					</g>
				</g>
				<g id="BLOUSE">
					<path class="st26" d="M374.6,457.3c0,0-5.7,79.1-47.9,138.8c0,0-69,11.8-129,0c0,0-59.4-62.5-76.5-130.3
						c0,0-56.6-114.8-31-134.3s89.3-53,89.3-53l129.6,6.4c16,9.7,50.1,25.6,84.2,43.5L374.6,457.3z"/>
					<circle class="st27" cx="269.6" cy="421.7" r="9.4"/>
					<circle class="st27" cx="269.6" cy="459.6" r="9.4"/>
					<circle class="st27" cx="269.6" cy="497.4" r="9.4"/>
				</g>
				<g id="RIGHT_HAND">
					<path class="st26" d="M393.3,328.4c34.1,17.9,134.4,247.7,92.6,272c-86.7,50.5-111.3-143-111.3-143L393.3,328.4z"/>
					<path class="st14" d="M449.5,607.5c11.7,5,41.9-4.2,75.4-26.2s-4.5-36.5-4.5-36.5s-44.6-17.9-71.8-5S427.1,597.9,449.5,607.5z"
						/>
					<polygon class="st28" points="630.6,495.4 447.4,495.4 246.4,627 429.6,627 					"/>
					<path class="st5" d="M562.9,549.7c0-4.8-30.4-32.9-42-22.3c-4.9,4.4-5.2,42.6-4.7,49.5C517.6,598.7,562.6,574.2,562.9,549.7z"
						/>
				</g>
				<g id="LEFT_HAND">
					<path class="st26" d="M90.2,331.5c-10.4,8.3-120.9,176.5-81.8,254c44.1,87.5,223.4,14.8,223.4,14.8s-22.7-7-8.1-36.2
						c0,0-74.2-39.5-133.8-27.7c0,0,46.3-76.7,51.1-106.7S127.5,301.9,90.2,331.5z"/>
					<line class="st29" x1="270.4" y1="513" x2="303.1" y2="585.9"/>
					<g id="ARM_00000152947159948759000970000018334097584773507736_">
						<path class="st5" d="M223.6,561.8c0,0,32.9-18.7,46-11.7c14.4,7.7,31.6,32,33.2,36.1s1.1,8.3,0.9,12.7s-30,4.1-35.7,3.8
							s-36.4,3.3-41.8-1.9C206.6,581.5,223.6,561.8,223.6,561.8z"/>
						<path class="st14" d="M268,602.7c5.8,0.3,32.1,0.7,35.4-2.5c6.6-6.2,2.8-15.4-0.5-19c-3-3.3-19.3-23.5-33.3-31.1
							C269.6,550.1,285.9,578.4,268,602.7"/>
					</g>
				</g>
				<g id="HEAD_00000079450022516127862630000002833372470842465963_">
					<g id="HAIR_00000062875532455470121160000010970273297913181580_">
						<path class="st23" d="M213.9,67.8c0,0-14.6-23.5,0-35.7S234.6,0.1,261,0c27.3-0.1,38.2,21.2,50.7,19.1
							c17-2.9,28.9-8.3,50.5,3.1c17.3,9.1,18,43.3,35.5,41.6c13.9-1.4,29.4-0.5,37.3,15c6,11.7-0.4,43.4,8.5,51.9s30,11.3,31.7,33.3
							c2.2,29.7-28.8,34.1-20.7,57.6c10.7,31-4.4,50.5-30.8,54c-18.6,2.5-51.3-25.2-63.3-6.1c-10.2,16.3-31.7,23.5-58,13
							s-42.6-7.3-58.8-0.4s-36.1,16.6-49.5,4.9s-29.6-12.1-47.4-4.7c-24.7,10.2-51.3-6.6-48-28.9c2.7-18.5-22.6-20.8-25.6-41.8
							c-3.8-27.4,36.5-34.5,24.8-46.3s-11.4-46.2,23.5-50.7c33.1-4.3,26-24.9,35.3-39C164.6,63.7,189.2,48.7,213.9,67.8z"/>
						<path class="st30" d="M83.7,158.7c-11-12.5-7.5-50.8,27.6-53.2c33.3-2.3,27.5-23.3,37.6-36.7c8.6-11.3,37.3-24.8,64.6-1.2"/>
					</g>
					<g id="NECK_00000064344349006752090930000005077180018324010142_">
						<path class="st5" d="M218.7,168.9c-0.2,21,1.1,78.9-39.2,109.6c0,0,72.2,36.3,88.5,116.6c0,0,11.5-84.7,41.1-110.3
							c0,0-35.1-19.9-27.4-116L218.7,168.9z"/>
						<path class="st14" d="M288.3,252.2c-5,4.5-10.6,7.1-16.8,7.1c-25.3,0-50.6-38.6-53-79.9c0.1-4.1,0.1-7.6,0.1-10.4h63.1
							C278.6,208,282.5,234.5,288.3,252.2z"/>
					</g>
					<path id="HEAD-2_00000120533942909631373250000002245556333780229780_" class="st5" d="M216.4,149.9c0.3-10.6,4-65.7,48.7-63.7
						s51.9,47.1,47.9,83.2s-26,60.5-41.4,58.8S215.2,194.6,216.4,149.9z"/>
				</g>
			</g>
		</g>
	</g>
</g>
</svg>
