<?xml version="1.0" encoding="utf-8"?>
<!-- Generator: Adobe Illustrator 25.4.0, SVG Export Plug-In . SVG Version: 6.00 Build 0)  -->
<svg version="1.1" id="Layer_1" xmlns="http://www.w3.org/2000/svg" xmlns:xlink="http://www.w3.org/1999/xlink" x="0px" y="0px"
	 viewBox="0 0 947.5 1240.9" style="enable-background:new 0 0 947.5 1240.9;" xml:space="preserve">
<style type="text/css">
	.st0{fill:#FFFFFF;stroke:#3F4D79;stroke-width:5;stroke-linecap:round;stroke-miterlimit:10;}
	.st1{fill:#FFB000;}
	.st2{fill:#E2631E;}
	.st3{fill:none;stroke:#3F4D79;stroke-width:7;stroke-linecap:round;stroke-miterlimit:10;}
	.st4{fill:#FFC0B7;}
	.st5{fill:#3C4564;}
	.st6{fill:#FE7523;}
	.st7{fill:#FFCFC9;}
	.st8{fill:#3F4D79;}
	.st9{fill:#FAB6AD;}
	.st10{fill:#CEEFF7;}
	.st11{fill:none;stroke:#84D7EC;stroke-width:5;stroke-miterlimit:10;}
	.st12{fill:none;stroke:#FE7523;stroke-width:3;stroke-miterlimit:10;}
	.st13{fill:none;stroke:#3F4D79;stroke-width:5;stroke-linecap:round;stroke-miterlimit:10;}
	.st14{fill:#FFFFFF;stroke:#ECBE02;stroke-width:6;stroke-miterlimit:10;}
	.st15{fill:#FFFFFF;}
	.st16{fill:none;stroke:#3CBFD4;stroke-width:5;stroke-linecap:round;stroke-miterlimit:10;}
	.st17{fill:none;stroke:#3CBFD4;stroke-width:7;stroke-linecap:round;stroke-miterlimit:10;}
	.st18{fill:#FFFFFF;stroke:#FFB000;stroke-width:5;stroke-miterlimit:10;}
</style>
<g id="Layer_2_00000163755307787817015370000011345234722229314455_">
	<g id="Слой_1">
		<g id="_2">
			<g id="CHAIR">
				<path class="st0" d="M503.7,1228.4l-52.8-380.5h37.8l27.2,380.5c-0.1,3.3-2.8,5.9-6.1,5.9l0,0
					C506.5,1234.3,503.8,1231.7,503.7,1228.4z"/>
				<path class="st0" d="M268.7,1228.4l27.2-380.5h37.8l-52.8,380.5c-0.1,3.3-2.8,5.9-6.1,5.9l0,0
					C271.5,1234.3,268.8,1231.7,268.7,1228.4z"/>
				<path class="st0" d="M159.7,1228.4l27.2-380.5h37.8l-52.8,380.5c-0.1,3.3-2.8,5.9-6.1,5.9l0,0
					C162.5,1234.3,159.8,1231.7,159.7,1228.4z"/>
				<polygon class="st0" points="187.8,766.3 198.7,810.1 162.8,810.1 151.9,766.3 				"/>
				<polygon class="st0" points="327.9,766.3 338.8,810.1 302.9,810.1 292,766.3 				"/>
				<path class="st1" d="M555.6,829.5L555.6,829.5c0,12.4-10,22.4-22.4,22.4H157.9c-12.4,0-22.4-10-22.4-22.4v0
					c0-12.4,10-22.4,22.4-22.4h375.3C545.5,807.1,555.6,817.1,555.6,829.5z"/>
				<path class="st1" d="M28.3,426.5h269.4c9.3,0,17.7,8.8,20.9,22.2L386.4,729c4.7,19.6-4.8,40.3-18.5,40.3h-248
					c-22.9,0-42.8-15.6-48.3-37.7l-68-273C-0.2,443,17.4,426.5,28.3,426.5z"/>
			</g>
			<g id="CHARACTER">
				<g id="LEGS">
					<g id="LEFT_LEG">
						<g id="FOOT">
							<path class="st2" d="M843.1,1160.7c0,0,42.8,35.7,76.5,39.6s27.4,32.1,27.4,32.1s-65.5,0-96.3-0.2
								c-25.9-0.2-78.7-0.2-78.7-0.2c-7.2-35.4,14.2-56.6,14.2-63.5L843.1,1160.7z"/>
							<path class="st3" d="M947,1235.4c0,0-146.5,0-177.3-0.2"/>
							<path class="st4" d="M787.2,1167.4c1.5-21.4-7.5-41.7-7.5-41.7l54.3-4.8c0,0,4.8,30.4,8.2,39.7
								C845.8,1170.9,786.7,1174.7,787.2,1167.4z"/>
						</g>
						<path id="PANT" class="st5" d="M261.8,685.1c35.7-2.1,83.3-9.1,129.6-28.6c16.8-7,32.9-15.7,48.1-25.8
							c51,4.4,287.4,57.1,308.4,91.5c39.8,65.1,95.3,396.8,95.3,396.8c-20.1,5.2-93.5,7.7-93.5,7.7
							c-106.4-114.7-112.2-336.3-112.2-336.3s-282.9,15.6-343.2-9.1C255.4,765.3,256.3,717.1,261.8,685.1z"/>
					</g>
					<g id="RIGHT_LEG">
						<g id="FOOT-2">
							<path class="st6" d="M802.1,1160.7c0,0,42.8,35.7,76.5,39.6s27.4,32.1,27.4,32.1s-65.5,0-96.3-0.2
								c-25.9-0.2-78.7-0.2-78.7-0.2c-7.2-35.4,14.2-56.6,14.2-63.5L802.1,1160.7z"/>
							<path class="st3" d="M906,1235.4c0,0-146.5,0-177.3-0.2"/>
							<path class="st7" d="M746.2,1167.4c-4.2-29.3-15.5-39.7-15.5-39.7l62.3-6.8c0,0,4.8,30.4,8.2,39.7
								C804.8,1170.9,747.2,1174.6,746.2,1167.4z"/>
						</g>
						<path id="PANT-2" class="st8" d="M224,685.7c33.5,0.9,101.6-1.5,167.4-29.2c39.9,1.3,302.6,60.9,312.9,91.8
							c18.8,56.5,104.5,369.8,104.5,369.8c-20.1,5.2-87,10-87,10C588.2,1009.4,594,816.4,594,816.4s-282.9,15.6-343.2-9.1
							C198.3,785.9,218,706,224,685.7z"/>
					</g>
				</g>
				<g id="LEFT_HAND">
					<path class="st4" d="M433.3,426.6l48.8-32c3,13.8,14,60.3,23.2,98.3c68.7-0.5,165.2,14.7,215.5,26.6
						c13.6-3.3,39.2-5.2,49.9-3.8c14.7,2,36.5,15,39.7,18.1c3.3,3.1,12.4,20.1,12.4,20.1s-4.5,7.3-14-1.9
						c-9.5-9.2-31.4-17.5-35.8-13.8c-9.9,8.2,17.2,5.2,20.8,9c3.7,3.8,2.8,6.6,2.8,6.6s-25.2,3.9-29.3,4.1s-21.4-4-30.4-9.1
						c-4.1-2.4-8-5-11.8-7.9c-68.9,13.8-233.4,19.7-301.8,6L433.3,426.6z"/>
					<path class="st9" d="M433.3,426.6l-1.6,24.3c40.8-10.6,53.5-42.6,53.5-42.6l-3.1-13.6L433.3,426.6z"/>
				</g>
				<g id="T-SHIRT">
					<path class="st10" d="M177.6,270.3c14.6-17.2,73.3-45.9,85.7-56.1c0,0,46.3,11.9,76.8,23.4s76.4,19.9,106,37.9
						s48.1,109.7,48.1,109.7c-35.7,28.3-60.9,41.4-60.9,41.4s3.8,3-4.4,70.2c-12.4,101.1,11.5,133.2,11.5,133.2
						c-102.9,69.5-237.7,54.4-237.7,54.4s5-75,5-100.6c0-9.5-6.2-53-13.2-104.6c-6.1,0.6-9.8,0.9-9.8,0.9
						C128.4,364.8,156.9,289.3,177.6,270.3z"/>
					<path class="st11" d="M275.5,353.7c15.2,75.5,27.8,96.2,27.8,96.2"/>
					<path class="st11" d="M431.6,353.3c2.4,19,4.3,53.2,2.9,71.4"/>
				</g>
				<g id="RIGHT_HAND">
					<path class="st7" d="M297.2,453.3l29.3,75.2c102.3-19.2,160.3-21.3,189.3-20.2c25.2-2.7,74.2,4,83.2,5.2
						c7.4,0.2,22,3.5,27.2,6.6c5.4,3.3,21,17.1,21,17.1s-3.6,5.9-10.6,2.6c-4.6-2.2-13.7-8.6-19.6-10.9c8.4,8.6,16.7,17.7,16.7,17.7
						s-7.7,7.1-21,8.7c-6.4,0.8-18-8.3-28-13s-22.2,6.3-37.4,10.7c-7.5,2.2-16.4-1.3-23.4-5.4l-12.5,0.4
						c-28.5,0.9-160.2,75.9-239,68.7c-24.2-2.2-77.7-137.3-77.7-137.3C252.7,473,297.2,453.3,297.2,453.3z"/>
					<path class="st9" d="M297.2,453.2l1.6,4.1c-28.3,28.8-67.7,44-92,51.2c-7.4-17.1-12.2-29.4-12.2-29.4
						C252.7,473,297.2,453.2,297.2,453.2z"/>
				</g>
				<g id="HEAD">
					<g id="NECK">
						<path class="st7" d="M382.5,181.2c-2.7,12.4-18.3,64.2-18.3,64.2s45.3,33.7-14.8,29.8s-86.1-60.9-86.1-60.9
							c49.4-33.1,53.4-90.1,53.4-90.1L382.5,181.2z"/>
						<path class="st9" d="M318.1,130.9l1.9-3.9l62.5,54.2c-1.4,6.6-6.6,24.6-11.1,39.8c-28.5-3.8-51.5-41.2-54.5-67.3
							C316.3,148.2,318.1,130.9,318.1,130.9z"/>
					</g>
					<path id="HEAD-2" class="st7" d="M325.1,102.9c0,0,4-58.7,60.5-54.3s59.6,41.5,57.4,64.9s-26.6,86.9-47.5,86.9
						c-26.9,0-61.6-26.4-72.6-49.4c-2.4-5-1.5-22.9-1.5-22.9L325.1,102.9z"/>
					<g id="HAIR">
						<path class="st6" d="M443,113.6c1.1-11.4,0.9-26.2-6.2-38.7c-12.8,1.9-25.8,4.6-35.8,4.8C367.5,80,358.7,58,358.7,58
							c2.7,32.4-30,28.5-33.6,45c-1.6,7.4-11.9,41.8-11.9,41.8s-38.4-86.3-22.5-107s34.2-13,34.2-13s8.6-20.5,38.2-24.3
							c33-4.2,55.2,20.3,65.8,31.8s29.6,3.1,50.4,21.2c17.6,15.3,7.1,36.2,7.1,36.2C473.1,113.1,443,113.5,443,113.6z"/>
						<path class="st12" d="M295.3,24.2c15.7-13.5,30.5,0.6,30.5,0.6"/>
						<path class="st12" d="M398.4,87.8c-33.5-1.9-39.7-31.7-39.7-31.7"/>
					</g>
					<g id="HEADPHONES">
						<path class="st13" d="M338.2,3.9c-5.6-0.4-10.5,3.6-11.3,9.2l-10.7,80.5"/>
						<path class="st13" d="M470.1,555.5c2.9,62.9-46.8,55.4-44.7,0c3.2-84.2-58.5-81.5-87-131.8s27.8-72.2-15.5-145.7
							s-18.4-112-15.5-126.1"/>
						<path class="st13" d="M404.1,202.1c35.1,66.4,11.8,119-12,158.1s-8.8,107.8,6,119.9"/>
						<path class="st14" d="M337.6,108.6l-5.3,35.2c-1,6.4-6.9,10.8-13.3,9.8l-21-3.2c-6.4-1-10.8-6.9-9.8-13.3l5.3-35.2
							c1-6.4,6.9-10.8,13.3-9.8l21,3.2C334.1,96.3,338.5,102.2,337.6,108.6z"/>
					</g>
				</g>
			</g>
			<g id="TABLE">
				<path class="st15" d="M796.6,606.7H391.5c-5.7,0-10.4-6.6-10.4-14.8v-1.4c0-8.2,4.6-14.8,10.4-14.8h538.1"/>
				<path class="st16" d="M794.6,604.7H391.5c-5.7,0-10.4-6.6-10.4-14.8v-1.4c0-8.2,4.6-14.8,10.4-14.8h532.1"/>
				<polygon class="st15" points="382.7,1239.9 483.7,605.7 518.8,605.7 416.8,1240.9 				"/>
				<polygon class="st10" points="483.7,605.7 518.8,605.7 515.6,623.8 477.7,637.9 				"/>
				<polyline class="st17" points="384.7,1235.9 483.7,605.7 518.8,605.7 418.8,1236.9 				"/>
			</g>
			<g id="LAPTOP">
				<path class="st18" d="M538.7,546.3c-10.2-3.7-15.4-15-11.7-25.1L594.3,338c3.2-8.7,11.5-14.5,20.7-14.5h306.8
					c1.9,0,3.7,0.3,5.4,1c8.1,3,12.2,12,9.2,20l-69.8,190.2c-2.8,7.7-10.2,12.8-18.4,12.8H545.4
					C543.1,547.5,540.9,547.1,538.7,546.3z"/>
				<path class="st18" d="M540.8,521.1l65-183.2c2.9-8.6,10.9-14.4,20-14.5h296.5c10.5,0,17.8,10.8,14.1,21L869,534.7
					c-2.6,7.6-9.7,12.8-17.8,12.8H558.6C545.5,547.5,536.3,534,540.8,521.1z"/>
				<path class="st18" d="M862,557.6v0.5c0,5.6-4.5,10.1-10.1,10.1H416.2c-5.6,0-10.1-4.5-10.1-10.1v-0.5c0-5.6,4.5-10.1,10.1-10.1
					h435.7C857.4,547.5,862,552,862,557.6z"/>
			</g>
		</g>
	</g>
</g>
</svg>
